# MagicaVoxel @ Ephtracy

# group
o wooden_box

# material
mtllib player_takoyaki.mtl
usemtl palette

# normals
vn -1 0 0
vn 1 0 0
vn 0 0 1
vn 0 0 -1
vn 0 -1 0
vn 0 1 0

# texcoords
vt 0.306641 0.5
vt 0.326172 0.5
vt 0.330078 0.5
vt 0.333984 0.5
vt 0.337891 0.5
vt 0.341797 0.5
vt 0.576172 0.5
vt 0.662109 0.5
vt 0.673828 0.5
vt 0.724609 0.5
vt 0.744141 0.5
vt 0.787109 0.5
vt 0.970703 0.5

# verts
v -0.4 0 0.4
v -0.4 0 -0.3
v -0.4 0 -0.4
v -0.4 0.1 0.4
v -0.4 0.1 0
v -0.4 0.1 -0.3
v -0.4 0.1 -0.4
v -0.4 0.2 0.4
v -0.4 0.2 0
v -0.4 0.2 -0.1
v -0.4 0.2 -0.2
v -0.4 0.2 -0.3
v -0.4 0.2 -0.4
v -0.4 0.3 0
v -0.4 0.3 -0.1
v -0.4 0.3 -0.2
v -0.4 0.3 -0.3
v -0.4 0.3 -0.4
v -0.4 0.4 0.4
v -0.4 0.4 0.3
v -0.4 0.4 -0.3
v -0.4 0.4 -0.4
v -0.4 0.5 0.4
v -0.4 0.5 0.3
v -0.4 0.5 0.2
v -0.4 0.5 -0.1
v -0.4 0.5 -0.3
v -0.4 0.5 -0.4
v -0.4 0.6 0.3
v -0.4 0.6 0.2
v -0.4 0.6 -0.1
v -0.4 0.6 -0.2
v -0.4 0.6 -0.3
v -0.4 0.7 0.3
v -0.4 0.7 0.2
v -0.4 0.7 -0.1
v -0.4 0.7 -0.2
v -0.4 0.7 -0.3
v -0.4 0.8 0.4
v -0.4 0.8 0.3
v -0.4 0.8 0.2
v -0.4 0.8 -0.1
v -0.4 0.8 -0.2
v -0.4 0.8 -0.4
v 0.4 0 0.4
v 0.4 0 0.3
v 0.4 0 0.2
v 0.4 0 0.1
v 0.4 0 -0.2
v 0.4 0 -0.3
v 0.4 0 -0.4
v 0.4 0.1 0.4
v 0.4 0.1 0.3
v 0.4 0.1 0.2
v 0.4 0.1 0.1
v 0.4 0.1 -0.2
v 0.4 0.1 -0.3
v 0.4 0.1 -0.4
v 0.4 0.2 0.1
v 0.4 0.2 -0.1
v 0.4 0.2 -0.2
v 0.4 0.2 -0.3
v 0.4 0.3 0.4
v 0.4 0.3 -0.1
v 0.4 0.3 -0.4
v 0.4 0.4 0.4
v 0.4 0.4 0
v 0.4 0.4 -0.1
v 0.4 0.4 -0.2
v 0.4 0.4 -0.3
v 0.4 0.5 0.4
v 0.4 0.5 0.3
v 0.4 0.5 0.2
v 0.4 0.5 0.1
v 0.4 0.5 0
v 0.4 0.5 -0.1
v 0.4 0.5 -0.2
v 0.4 0.5 -0.3
v 0.4 0.5 -0.4
v 0.4 0.6 0.4
v 0.4 0.6 0.3
v 0.4 0.6 0.2
v 0.4 0.6 0.1
v 0.4 0.6 0
v 0.4 0.6 -0.1
v 0.4 0.6 -0.2
v 0.4 0.6 -0.3
v 0.4 0.6 -0.4
v 0.4 0.7 0.4
v 0.4 0.7 0.3
v 0.4 0.7 0.2
v 0.4 0.7 0.1
v 0.4 0.7 0
v 0.4 0.7 -0.1
v 0.4 0.7 -0.3
v 0.4 0.8 0.4
v 0.4 0.8 0.3
v 0.4 0.8 0.2
v 0.4 0.8 -0.1
v 0.4 0.8 -0.3
v 0.4 0.8 -0.4
v -0.4 0 0.4
v -0.4 0.1 0.4
v -0.4 0.2 0.4
v -0.4 0.4 0.4
v -0.4 0.5 0.4
v -0.4 0.8 0.4
v -0.3 0 0.4
v -0.3 0.1 0.4
v -0.3 0.4 0.4
v -0.3 0.5 0.4
v -0.2 0 0.4
v -0.2 0.1 0.4
v -0.2 0.4 0.4
v -0.2 0.5 0.4
v -0.2 0.6 0.4
v -0.1 0.5 0.4
v -0.1 0.6 0.4
v -0.1 0.7 0.4
v -0.1 0.8 0.4
v 0 0 0.4
v 0 0.1 0.4
v 0 0.2 0.4
v 0 0.4 0.4
v 0 0.5 0.4
v 0 0.6 0.4
v 0.1 0.2 0.4
v 0.1 0.3 0.4
v 0.1 0.4 0.4
v 0.1 0.5 0.4
v 0.1 0.6 0.4
v 0.2 0.2 0.4
v 0.2 0.3 0.4
v 0.2 0.4 0.4
v 0.2 0.5 0.4
v 0.2 0.6 0.4
v 0.2 0.7 0.4
v 0.2 0.8 0.4
v 0.3 0.4 0.4
v 0.3 0.5 0.4
v 0.3 0.6 0.4
v 0.3 0.7 0.4
v 0.3 0.8 0.4
v 0.4 0 0.4
v 0.4 0.1 0.4
v 0.4 0.3 0.4
v 0.4 0.4 0.4
v 0.4 0.5 0.4
v 0.4 0.6 0.4
v 0.4 0.7 0.4
v 0.4 0.8 0.4
v -0.4 0 -0.4
v -0.4 0.1 -0.4
v -0.4 0.2 -0.4
v -0.4 0.3 -0.4
v -0.4 0.4 -0.4
v -0.4 0.5 -0.4
v -0.4 0.8 -0.4
v -0.3 0 -0.4
v -0.3 0.1 -0.4
v -0.3 0.2 -0.4
v -0.3 0.3 -0.4
v -0.3 0.4 -0.4
v -0.3 0.5 -0.4
v -0.2 0 -0.4
v -0.2 0.1 -0.4
v -0.2 0.2 -0.4
v -0.2 0.3 -0.4
v -0.2 0.4 -0.4
v -0.1 0.1 -0.4
v -0.1 0.2 -0.4
v -0.1 0.3 -0.4
v -0.1 0.4 -0.4
v -0.1 0.5 -0.4
v -0.1 0.6 -0.4
v -0.1 0.7 -0.4
v -0.1 0.8 -0.4
v 0 0.4 -0.4
v 0 0.5 -0.4
v 0 0.7 -0.4
v 0 0.8 -0.4
v 0.1 0.1 -0.4
v 0.1 0.2 -0.4
v 0.1 0.3 -0.4
v 0.1 0.4 -0.4
v 0.1 0.5 -0.4
v 0.1 0.6 -0.4
v 0.2 0 -0.4
v 0.2 0.1 -0.4
v 0.2 0.3 -0.4
v 0.2 0.4 -0.4
v 0.2 0.6 -0.4
v 0.2 0.7 -0.4
v 0.3 0.1 -0.4
v 0.3 0.2 -0.4
v 0.3 0.3 -0.4
v 0.3 0.4 -0.4
v 0.3 0.5 -0.4
v 0.3 0.6 -0.4
v 0.3 0.7 -0.4
v 0.3 0.8 -0.4
v 0.4 0 -0.4
v 0.4 0.1 -0.4
v 0.4 0.3 -0.4
v 0.4 0.5 -0.4
v 0.4 0.6 -0.4
v 0.4 0.8 -0.4
v -0.4 0 0.4
v -0.3 0 0.4
v -0.2 0 0.4
v 0 0 0.4
v 0.4 0 0.4
v 0 0 0.3
v 0.2 0 0.3
v 0.4 0 0.3
v -0.3 0 0.2
v -0.2 0 0.2
v -0.1 0 0.2
v 0.1 0 0.2
v 0.2 0 0.2
v 0.4 0 0.2
v -0.2 0 0.1
v -0.1 0 0.1
v 0 0 0.1
v 0.1 0 0.1
v 0.2 0 0.1
v 0.3 0 0.1
v 0.4 0 0.1
v -0.2 0 0
v -0.1 0 0
v 0 0 0
v 0.1 0 0
v -0.2 0 -0.1
v -0.1 0 -0.1
v 0 0 -0.1
v 0.1 0 -0.1
v 0.2 0 -0.1
v -0.3 0 -0.2
v -0.2 0 -0.2
v -0.1 0 -0.2
v 0 0 -0.2
v 0.1 0 -0.2
v 0.2 0 -0.2
v 0.3 0 -0.2
v 0.4 0 -0.2
v -0.4 0 -0.3
v -0.3 0 -0.3
v 0.2 0 -0.3
v 0.3 0 -0.3
v 0.4 0 -0.3
v -0.4 0 -0.4
v -0.3 0 -0.4
v -0.2 0 -0.4
v 0.2 0 -0.4
v 0.4 0 -0.4
v -0.4 0.8 0.4
v -0.1 0.8 0.4
v 0.2 0.8 0.4
v 0.3 0.8 0.4
v 0.4 0.8 0.4
v -0.4 0.8 0.3
v -0.3 0.8 0.3
v -0.2 0.8 0.3
v -0.1 0.8 0.3
v 0 0.8 0.3
v 0.1 0.8 0.3
v 0.2 0.8 0.3
v 0.3 0.8 0.3
v 0.4 0.8 0.3
v -0.4 0.8 0.2
v -0.3 0.8 0.2
v -0.2 0.8 0.2
v -0.1 0.8 0.2
v 0 0.8 0.2
v 0.1 0.8 0.2
v 0.2 0.8 0.2
v 0.3 0.8 0.2
v 0.4 0.8 0.2
v -0.3 0.8 0.1
v -0.2 0.8 0.1
v 0 0.8 0.1
v 0.1 0.8 0.1
v 0.2 0.8 0.1
v 0.3 0.8 0.1
v -0.3 0.8 0
v -0.2 0.8 0
v 0 0.8 0
v 0.1 0.8 0
v 0.2 0.8 0
v 0.3 0.8 0
v -0.4 0.8 -0.1
v -0.3 0.8 -0.1
v -0.2 0.8 -0.1
v -0.1 0.8 -0.1
v 0 0.8 -0.1
v 0.1 0.8 -0.1
v 0.2 0.8 -0.1
v 0.4 0.8 -0.1
v -0.4 0.8 -0.2
v -0.3 0.8 -0.2
v -0.2 0.8 -0.2
v -0.1 0.8 -0.2
v 0 0.8 -0.2
v 0.2 0.8 -0.2
v 0.3 0.8 -0.2
v -0.3 0.8 -0.3
v -0.2 0.8 -0.3
v -0.1 0.8 -0.3
v 0 0.8 -0.3
v 0.1 0.8 -0.3
v 0.2 0.8 -0.3
v 0.3 0.8 -0.3
v 0.4 0.8 -0.3
v -0.4 0.8 -0.4
v -0.1 0.8 -0.4
v 0 0.8 -0.4
v 0.3 0.8 -0.4
v 0.4 0.8 -0.4

# faces
f 4/9/1 2/9/1 1/9/1
f 5/9/1 2/9/1 4/9/1
f 6/8/1 3/8/1 2/8/1
f 6/9/1 2/9/1 5/9/1
f 7/8/1 3/8/1 6/8/1
f 8/8/1 5/8/1 4/8/1
f 9/9/1 6/9/1 5/9/1
f 9/8/1 5/8/1 8/8/1
f 9/9/1 7/9/1 6/9/1
f 10/9/1 7/9/1 9/9/1
f 11/9/1 7/9/1 10/9/1
f 12/9/1 7/9/1 11/9/1
f 13/9/1 7/9/1 12/9/1
f 14/9/1 9/9/1 8/9/1
f 14/6/1 10/6/1 9/6/1
f 15/8/1 11/8/1 10/8/1
f 15/6/1 10/6/1 14/6/1
f 16/9/1 12/9/1 11/9/1
f 16/8/1 11/8/1 15/8/1
f 17/2/1 13/2/1 12/2/1
f 17/9/1 12/9/1 16/9/1
f 18/2/1 13/2/1 17/2/1
f 19/9/1 16/9/1 15/9/1
f 19/9/1 14/9/1 8/9/1
f 19/9/1 15/9/1 14/9/1
f 19/9/1 17/9/1 16/9/1
f 20/9/1 17/9/1 19/9/1
f 21/8/1 18/8/1 17/8/1
f 21/9/1 17/9/1 20/9/1
f 22/8/1 18/8/1 21/8/1
f 23/8/1 20/8/1 19/8/1
f 24/9/1 21/9/1 20/9/1
f 24/8/1 20/8/1 23/8/1
f 24/9/1 22/9/1 21/9/1
f 25/9/1 22/9/1 24/9/1
f 26/9/1 22/9/1 25/9/1
f 27/9/1 22/9/1 26/9/1
f 28/9/1 22/9/1 27/9/1
f 29/1/1 24/1/1 23/1/1
f 29/3/1 25/3/1 24/3/1
f 30/1/1 26/1/1 25/1/1
f 30/3/1 25/3/1 29/3/1
f 31/8/1 27/8/1 26/8/1
f 31/1/1 26/1/1 30/1/1
f 32/8/1 27/8/1 31/8/1
f 33/1/1 28/1/1 27/1/1
f 33/8/1 27/8/1 32/8/1
f 34/1/1 32/1/1 31/1/1
f 34/1/1 29/1/1 23/1/1
f 34/1/1 30/1/1 29/1/1
f 34/1/1 31/1/1 30/1/1
f 35/1/1 32/1/1 34/1/1
f 36/1/1 32/1/1 35/1/1
f 37/3/1 33/3/1 32/3/1
f 37/1/1 32/1/1 36/1/1
f 38/1/1 28/1/1 33/1/1
f 38/3/1 33/3/1 37/3/1
f 39/1/1 34/1/1 23/1/1
f 40/12/1 35/12/1 34/12/1
f 40/1/1 34/1/1 39/1/1
f 41/1/1 36/1/1 35/1/1
f 41/12/1 35/12/1 40/12/1
f 42/13/1 37/13/1 36/13/1
f 42/1/1 36/1/1 41/1/1
f 43/1/1 38/1/1 37/1/1
f 43/13/1 37/13/1 42/13/1
f 44/1/1 28/1/1 38/1/1
f 44/1/1 38/1/1 43/1/1
f 45/8/2 46/8/2 52/8/2
f 46/4/2 47/4/2 53/4/2
f 52/8/2 46/8/2 53/8/2
f 47/3/2 48/3/2 54/3/2
f 53/4/2 47/4/2 54/4/2
f 48/9/2 49/9/2 55/9/2
f 54/3/2 48/3/2 55/3/2
f 49/8/2 50/8/2 56/8/2
f 55/9/2 49/9/2 56/9/2
f 50/9/2 51/9/2 57/9/2
f 56/8/2 50/8/2 57/8/2
f 57/9/2 51/9/2 58/9/2
f 55/2/2 56/2/2 59/2/2
f 52/9/2 53/9/2 59/9/2
f 53/9/2 54/9/2 59/9/2
f 54/9/2 55/9/2 59/9/2
f 59/2/2 56/2/2 60/2/2
f 56/3/2 57/3/2 61/3/2
f 60/2/2 56/2/2 61/2/2
f 57/8/2 58/8/2 62/8/2
f 61/3/2 57/3/2 62/3/2
f 59/9/2 60/9/2 63/9/2
f 52/9/2 59/9/2 63/9/2
f 60/8/2 61/8/2 64/8/2
f 63/9/2 60/9/2 64/9/2
f 61/8/2 62/8/2 64/8/2
f 62/8/2 58/8/2 65/8/2
f 64/8/2 62/8/2 65/8/2
f 63/8/2 64/8/2 66/8/2
f 66/8/2 64/8/2 67/8/2
f 64/9/2 65/9/2 68/9/2
f 67/8/2 64/8/2 68/8/2
f 68/9/2 65/9/2 69/9/2
f 69/9/2 65/9/2 70/9/2
f 66/9/2 67/9/2 71/9/2
f 71/9/2 67/9/2 72/9/2
f 72/9/2 67/9/2 73/9/2
f 73/9/2 67/9/2 74/9/2
f 67/8/2 68/8/2 75/8/2
f 74/9/2 67/9/2 75/9/2
f 68/6/2 69/6/2 76/6/2
f 75/8/2 68/8/2 76/8/2
f 69/3/2 70/3/2 77/3/2
f 76/6/2 69/6/2 77/6/2
f 70/9/2 65/9/2 78/9/2
f 77/3/2 70/3/2 78/3/2
f 78/9/2 65/9/2 79/9/2
f 71/2/2 72/2/2 80/2/2
f 72/3/2 73/3/2 81/3/2
f 80/2/2 72/2/2 81/2/2
f 73/8/2 74/8/2 82/8/2
f 81/3/2 73/3/2 82/3/2
f 74/6/2 75/6/2 83/6/2
f 82/8/2 74/8/2 83/8/2
f 75/1/2 76/1/2 84/1/2
f 83/6/2 75/6/2 84/6/2
f 76/5/2 77/5/2 85/5/2
f 84/1/2 76/1/2 85/1/2
f 77/1/2 78/1/2 86/1/2
f 85/5/2 77/5/2 86/5/2
f 78/2/2 79/2/2 87/2/2
f 86/1/2 78/1/2 87/1/2
f 87/2/2 79/2/2 88/2/2
f 80/3/2 81/3/2 89/3/2
f 81/1/2 82/1/2 90/1/2
f 89/3/2 81/3/2 90/3/2
f 82/1/2 83/1/2 90/1/2
f 90/1/2 83/1/2 91/1/2
f 83/4/2 84/4/2 92/4/2
f 91/1/2 83/1/2 92/1/2
f 87/1/2 88/1/2 93/1/2
f 92/4/2 84/4/2 93/4/2
f 84/1/2 85/1/2 93/1/2
f 85/1/2 86/1/2 93/1/2
f 86/1/2 87/1/2 93/1/2
f 93/1/2 88/1/2 94/1/2
f 94/1/2 88/1/2 95/1/2
f 89/1/2 90/1/2 96/1/2
f 90/12/2 91/12/2 97/12/2
f 96/1/2 90/1/2 97/1/2
f 91/1/2 92/1/2 98/1/2
f 97/12/2 91/12/2 98/12/2
f 92/1/2 93/1/2 98/1/2
f 93/1/2 94/1/2 98/1/2
f 94/12/2 95/12/2 99/12/2
f 98/1/2 94/1/2 99/1/2
f 95/1/2 88/1/2 100/1/2
f 99/12/2 95/12/2 100/12/2
f 100/1/2 88/1/2 101/1/2
f 108/9/3 103/9/3 102/9/3
f 109/8/3 104/8/3 103/8/3
f 109/9/3 103/9/3 108/9/3
f 110/9/3 105/9/3 104/9/3
f 110/8/3 106/8/3 105/8/3
f 111/1/3 107/1/3 106/1/3
f 111/8/3 106/8/3 110/8/3
f 112/4/3 109/4/3 108/4/3
f 113/8/3 104/8/3 109/8/3
f 113/4/3 109/4/3 112/4/3
f 114/9/3 110/9/3 104/9/3
f 114/3/3 111/3/3 110/3/3
f 115/1/3 107/1/3 111/1/3
f 115/3/3 111/3/3 114/3/3
f 116/1/3 107/1/3 115/1/3
f 117/1/3 115/1/3 114/1/3
f 117/3/3 116/3/3 115/3/3
f 118/1/3 107/1/3 116/1/3
f 118/3/3 116/3/3 117/3/3
f 119/1/3 107/1/3 118/1/3
f 120/1/3 107/1/3 119/1/3
f 121/3/3 113/3/3 112/3/3
f 122/8/3 104/8/3 113/8/3
f 122/3/3 113/3/3 121/3/3
f 123/9/3 114/9/3 104/9/3
f 123/8/3 104/8/3 122/8/3
f 124/1/3 117/1/3 114/1/3
f 124/9/3 114/9/3 123/9/3
f 124/1/3 118/1/3 117/1/3
f 124/1/3 119/1/3 118/1/3
f 125/1/3 119/1/3 124/1/3
f 126/1/3 119/1/3 125/1/3
f 127/9/3 123/9/3 122/9/3
f 127/9/3 124/9/3 123/9/3
f 128/9/3 124/9/3 127/9/3
f 129/5/3 125/5/3 124/5/3
f 129/9/3 124/9/3 128/9/3
f 130/6/3 126/6/3 125/6/3
f 130/5/3 125/5/3 129/5/3
f 131/1/3 119/1/3 126/1/3
f 131/6/3 126/6/3 130/6/3
f 132/8/3 128/8/3 127/8/3
f 132/9/3 127/9/3 122/9/3
f 133/9/3 129/9/3 128/9/3
f 133/8/3 128/8/3 132/8/3
f 134/6/3 130/6/3 129/6/3
f 134/9/3 129/9/3 133/9/3
f 135/1/3 131/1/3 130/1/3
f 135/6/3 130/6/3 134/6/3
f 136/1/3 119/1/3 131/1/3
f 136/1/3 131/1/3 135/1/3
f 137/12/3 120/12/3 119/12/3
f 137/1/3 119/1/3 136/1/3
f 138/12/3 120/12/3 137/12/3
f 139/8/3 135/8/3 134/8/3
f 139/8/3 134/8/3 133/8/3
f 140/3/3 136/3/3 135/3/3
f 140/8/3 135/8/3 139/8/3
f 141/1/3 137/1/3 136/1/3
f 141/3/3 136/3/3 140/3/3
f 142/7/3 138/7/3 137/7/3
f 142/1/3 137/1/3 141/1/3
f 143/7/3 138/7/3 142/7/3
f 144/8/3 122/8/3 121/8/3
f 145/9/3 133/9/3 132/9/3
f 145/8/3 122/8/3 144/8/3
f 145/9/3 132/9/3 122/9/3
f 146/8/3 139/8/3 133/8/3
f 146/9/3 133/9/3 145/9/3
f 147/9/3 140/9/3 139/9/3
f 147/8/3 139/8/3 146/8/3
f 148/2/3 141/2/3 140/2/3
f 148/9/3 140/9/3 147/9/3
f 149/3/3 142/3/3 141/3/3
f 149/2/3 141/2/3 148/2/3
f 150/1/3 143/1/3 142/1/3
f 150/3/3 142/3/3 149/3/3
f 151/1/3 143/1/3 150/1/3
f 152/8/4 153/8/4 159/8/4
f 153/9/4 154/9/4 160/9/4
f 159/8/4 153/8/4 160/8/4
f 154/2/4 155/2/4 161/2/4
f 160/9/4 154/9/4 161/9/4
f 155/8/4 156/8/4 162/8/4
f 161/2/4 155/2/4 162/2/4
f 156/9/4 157/9/4 163/9/4
f 162/8/4 156/8/4 163/8/4
f 157/1/4 158/1/4 164/1/4
f 163/9/4 157/9/4 164/9/4
f 159/4/4 160/4/4 165/4/4
f 160/3/4 161/3/4 166/3/4
f 165/4/4 160/4/4 166/4/4
f 161/10/4 162/10/4 167/10/4
f 166/3/4 161/3/4 167/3/4
f 162/11/4 163/11/4 168/11/4
f 167/10/4 162/10/4 168/10/4
f 163/11/4 164/11/4 168/11/4
f 168/11/4 164/11/4 169/11/4
f 166/8/4 167/8/4 170/8/4
f 165/3/4 166/3/4 170/3/4
f 168/10/4 169/10/4 171/10/4
f 170/8/4 167/8/4 171/8/4
f 167/10/4 168/10/4 171/10/4
f 171/10/4 169/10/4 172/10/4
f 169/11/4 164/11/4 173/11/4
f 172/10/4 169/10/4 173/10/4
f 164/1/4 158/1/4 174/1/4
f 173/11/4 164/11/4 174/11/4
f 174/1/4 158/1/4 175/1/4
f 175/1/4 158/1/4 176/1/4
f 176/1/4 158/1/4 177/1/4
f 172/8/4 173/8/4 178/8/4
f 173/5/4 174/5/4 178/5/4
f 174/6/4 175/6/4 179/6/4
f 178/5/4 174/5/4 179/5/4
f 176/13/4 177/13/4 180/13/4
f 175/1/4 176/1/4 180/1/4
f 180/13/4 177/13/4 181/13/4
f 165/3/4 170/3/4 182/3/4
f 170/2/4 171/2/4 182/2/4
f 171/9/4 172/9/4 183/9/4
f 182/2/4 171/2/4 183/2/4
f 172/8/4 178/8/4 184/8/4
f 183/9/4 172/9/4 184/9/4
f 178/3/4 179/3/4 185/3/4
f 184/8/4 178/8/4 185/8/4
f 179/6/4 175/6/4 186/6/4
f 185/3/4 179/3/4 186/3/4
f 175/1/4 180/1/4 187/1/4
f 186/6/4 175/6/4 187/6/4
f 165/3/4 182/3/4 188/3/4
f 182/9/4 183/9/4 189/9/4
f 188/3/4 182/3/4 189/3/4
f 184/11/4 185/11/4 190/11/4
f 183/10/4 184/10/4 190/10/4
f 185/11/4 186/11/4 190/11/4
f 190/11/4 186/11/4 191/11/4
f 187/1/4 180/1/4 192/1/4
f 186/3/4 187/3/4 192/3/4
f 180/12/4 181/12/4 193/12/4
f 192/1/4 180/1/4 193/1/4
f 189/9/4 183/9/4 194/9/4
f 188/9/4 189/9/4 194/9/4
f 190/10/4 191/10/4 195/10/4
f 194/9/4 183/9/4 195/9/4
f 183/10/4 190/10/4 195/10/4
f 195/10/4 191/10/4 196/10/4
f 191/11/4 186/11/4 197/11/4
f 196/10/4 191/10/4 197/10/4
f 186/3/4 192/3/4 198/3/4
f 197/11/4 186/11/4 198/11/4
f 192/3/4 193/3/4 198/3/4
f 198/3/4 193/3/4 199/3/4
f 193/12/4 181/12/4 200/12/4
f 199/3/4 193/3/4 200/3/4
f 200/12/4 181/12/4 201/12/4
f 188/9/4 194/9/4 202/9/4
f 195/8/4 196/8/4 203/8/4
f 202/9/4 194/9/4 203/9/4
f 194/8/4 195/8/4 203/8/4
f 196/9/4 197/9/4 204/9/4
f 203/8/4 196/8/4 204/8/4
f 197/9/4 198/9/4 204/9/4
f 198/2/4 199/2/4 205/2/4
f 204/9/4 198/9/4 205/9/4
f 200/1/4 201/1/4 206/1/4
f 205/2/4 199/2/4 206/2/4
f 199/1/4 200/1/4 206/1/4
f 206/1/4 201/1/4 207/1/4
f 213/3/5 211/3/5 210/3/5
f 213/8/5 212/8/5 211/8/5
f 214/8/5 212/8/5 213/8/5
f 215/8/5 212/8/5 214/8/5
f 216/9/5 209/9/5 208/9/5
f 216/4/5 210/4/5 209/4/5
f 217/3/5 213/3/5 210/3/5
f 217/4/5 210/4/5 216/4/5
f 217/3/5 214/3/5 213/3/5
f 218/3/5 214/3/5 217/3/5
f 219/3/5 214/3/5 218/3/5
f 220/4/5 215/4/5 214/4/5
f 220/3/5 214/3/5 219/3/5
f 221/4/5 215/4/5 220/4/5
f 222/3/5 217/3/5 216/3/5
f 222/3/5 218/3/5 217/3/5
f 223/6/5 219/6/5 218/6/5
f 223/3/5 218/3/5 222/3/5
f 224/6/5 219/6/5 223/6/5
f 225/5/5 220/5/5 219/5/5
f 225/6/5 219/6/5 224/6/5
f 226/3/5 221/3/5 220/3/5
f 226/5/5 220/5/5 225/5/5
f 227/3/5 221/3/5 226/3/5
f 228/3/5 221/3/5 227/3/5
f 229/3/5 222/3/5 216/3/5
f 229/4/5 223/4/5 222/4/5
f 230/3/5 224/3/5 223/3/5
f 230/4/5 223/4/5 229/4/5
f 231/5/5 225/5/5 224/5/5
f 231/3/5 224/3/5 230/3/5
f 232/6/5 226/6/5 225/6/5
f 232/5/5 225/5/5 231/5/5
f 233/6/5 230/6/5 229/6/5
f 233/3/5 229/3/5 216/3/5
f 234/4/5 231/4/5 230/4/5
f 234/6/5 230/6/5 233/6/5
f 235/3/5 232/3/5 231/3/5
f 235/4/5 231/4/5 234/4/5
f 236/6/5 226/6/5 232/6/5
f 236/3/5 232/3/5 235/3/5
f 237/3/5 227/3/5 226/3/5
f 237/6/5 226/6/5 236/6/5
f 238/9/5 216/9/5 208/9/5
f 238/3/5 233/3/5 216/3/5
f 239/5/5 234/5/5 233/5/5
f 239/3/5 233/3/5 238/3/5
f 240/6/5 235/6/5 234/6/5
f 240/5/5 234/5/5 239/5/5
f 241/4/5 236/4/5 235/4/5
f 241/6/5 235/6/5 240/6/5
f 242/3/5 237/3/5 236/3/5
f 242/4/5 236/4/5 241/4/5
f 243/3/5 227/3/5 237/3/5
f 243/3/5 237/3/5 242/3/5
f 244/9/5 228/9/5 227/9/5
f 244/3/5 227/3/5 243/3/5
f 245/9/5 228/9/5 244/9/5
f 246/9/5 238/9/5 208/9/5
f 247/4/5 239/4/5 238/4/5
f 247/9/5 238/9/5 246/9/5
f 248/3/5 242/3/5 241/3/5
f 248/3/5 243/3/5 242/3/5
f 248/3/5 241/3/5 240/3/5
f 248/3/5 240/3/5 239/3/5
f 248/4/5 244/4/5 243/4/5
f 249/8/5 245/8/5 244/8/5
f 249/4/5 244/4/5 248/4/5
f 250/8/5 245/8/5 249/8/5
f 251/8/5 247/8/5 246/8/5
f 252/4/5 239/4/5 247/4/5
f 252/8/5 247/8/5 251/8/5
f 253/3/5 248/3/5 239/3/5
f 253/4/5 239/4/5 252/4/5
f 254/9/5 249/9/5 248/9/5
f 254/3/5 248/3/5 253/3/5
f 254/9/5 250/9/5 249/9/5
f 255/9/5 250/9/5 254/9/5
f 256/1/6 257/1/6 261/1/6
f 261/1/6 257/1/6 262/1/6
f 262/1/6 257/1/6 263/1/6
f 257/12/6 258/12/6 264/12/6
f 263/1/6 257/1/6 264/1/6
f 264/12/6 258/12/6 265/12/6
f 265/12/6 258/12/6 266/12/6
f 258/7/6 259/7/6 267/7/6
f 266/12/6 258/12/6 267/12/6
f 259/1/6 260/1/6 268/1/6
f 267/7/6 259/7/6 268/7/6
f 268/1/6 260/1/6 269/1/6
f 261/12/6 262/12/6 270/12/6
f 262/1/6 263/1/6 271/1/6
f 270/12/6 262/12/6 271/12/6
f 263/7/6 264/7/6 272/7/6
f 271/1/6 263/1/6 272/1/6
f 264/1/6 265/1/6 273/1/6
f 272/7/6 264/7/6 273/7/6
f 265/7/6 266/7/6 274/7/6
f 273/1/6 265/1/6 274/1/6
f 266/1/6 267/1/6 275/1/6
f 274/7/6 266/7/6 275/7/6
f 267/7/6 268/7/6 276/7/6
f 275/1/6 267/1/6 276/1/6
f 268/12/6 269/12/6 277/12/6
f 276/7/6 268/7/6 277/7/6
f 277/12/6 269/12/6 278/12/6
f 270/1/6 271/1/6 279/1/6
f 271/13/6 272/13/6 279/13/6
f 273/1/6 274/1/6 280/1/6
f 279/13/6 272/13/6 280/13/6
f 272/1/6 273/1/6 280/1/6
f 274/1/6 275/1/6 280/1/6
f 280/1/6 275/1/6 281/1/6
f 275/7/6 276/7/6 282/7/6
f 281/1/6 275/1/6 282/1/6
f 276/1/6 277/1/6 283/1/6
f 282/7/6 276/7/6 283/7/6
f 277/1/6 278/1/6 283/1/6
f 283/1/6 278/1/6 284/1/6
f 270/1/6 279/1/6 285/1/6
f 279/7/6 280/7/6 285/7/6
f 280/12/6 281/12/6 286/12/6
f 285/7/6 280/7/6 286/7/6
f 281/7/6 282/7/6 287/7/6
f 286/12/6 281/12/6 287/12/6
f 282/1/6 283/1/6 288/1/6
f 287/7/6 282/7/6 288/7/6
f 283/7/6 284/7/6 289/7/6
f 288/1/6 283/1/6 289/1/6
f 284/1/6 278/1/6 290/1/6
f 289/7/6 284/7/6 290/7/6
f 285/1/6 286/1/6 291/1/6
f 270/1/6 285/1/6 291/1/6
f 291/1/6 286/1/6 292/1/6
f 286/7/6 287/7/6 293/7/6
f 292/1/6 286/1/6 293/1/6
f 293/7/6 287/7/6 294/7/6
f 287/13/6 288/13/6 295/13/6
f 294/7/6 287/7/6 295/7/6
f 288/7/6 289/7/6 296/7/6
f 295/13/6 288/13/6 296/13/6
f 289/1/6 290/1/6 297/1/6
f 296/7/6 289/7/6 297/7/6
f 290/1/6 278/1/6 298/1/6
f 297/1/6 290/1/6 298/1/6
f 291/13/6 292/13/6 299/13/6
f 293/1/6 294/1/6 300/1/6
f 299/13/6 292/13/6 300/13/6
f 292/1/6 293/1/6 300/1/6
f 300/1/6 294/1/6 301/1/6
f 294/7/6 295/7/6 302/7/6
f 301/1/6 294/1/6 302/1/6
f 295/1/6 296/1/6 303/1/6
f 302/7/6 295/7/6 303/7/6
f 296/7/6 297/7/6 304/7/6
f 297/12/6 298/12/6 304/12/6
f 304/12/6 298/12/6 305/12/6
f 300/7/6 301/7/6 306/7/6
f 299/1/6 300/1/6 306/1/6
f 301/13/6 302/13/6 307/13/6
f 306/7/6 301/7/6 307/7/6
f 302/1/6 303/1/6 308/1/6
f 307/13/6 302/13/6 308/13/6
f 303/1/6 296/1/6 309/1/6
f 308/1/6 303/1/6 309/1/6
f 296/7/6 304/7/6 310/7/6
f 309/1/6 296/1/6 310/1/6
f 304/1/6 305/1/6 311/1/6
f 310/7/6 304/7/6 311/7/6
f 305/12/6 298/12/6 312/12/6
f 311/1/6 305/1/6 312/1/6
f 312/12/6 298/12/6 313/12/6
f 307/1/6 308/1/6 314/1/6
f 299/1/6 306/1/6 314/1/6
f 306/1/6 307/1/6 314/1/6
f 308/13/6 309/13/6 315/13/6
f 314/1/6 308/1/6 315/1/6
f 310/12/6 311/12/6 316/12/6
f 315/13/6 309/13/6 316/13/6
f 311/12/6 312/12/6 316/12/6
f 309/12/6 310/12/6 316/12/6
f 312/1/6 313/1/6 317/1/6
f 316/12/6 312/12/6 317/12/6
f 317/1/6 313/1/6 318/1/6
