# MagicaVoxel @ Ephtracy

# group
o wooden_box

# material
mtllib takoyaki.mtl
usemtl palette

# normals
vn -1 0 0
vn 1 0 0
vn 0 0 1
vn 0 0 -1
vn 0 -1 0
vn 0 1 0

# texcoords
vt 0.306641 0.5
vt 0.326172 0.5
vt 0.330078 0.5
vt 0.333984 0.5
vt 0.337891 0.5
vt 0.341797 0.5
vt 0.576172 0.5

# verts
v -0.4 0 0.4
v -0.4 0 0.2
v -0.4 0 -0.2
v -0.4 0 -0.4
v -0.4 0.1 0.4
v -0.4 0.1 0.2
v -0.4 0.1 -0.2
v -0.4 0.1 -0.4
v -0.4 0.2 0.4
v -0.4 0.2 0.3
v -0.4 0.2 0.2
v -0.4 0.2 0.1
v -0.4 0.2 0
v -0.4 0.2 -0.1
v -0.4 0.2 -0.2
v -0.4 0.2 -0.3
v -0.4 0.2 -0.4
v -0.4 0.3 0.2
v -0.4 0.3 0.1
v -0.4 0.3 0
v -0.4 0.3 -0.1
v -0.4 0.3 -0.2
v -0.4 0.4 0.1
v -0.4 0.4 0
v -0.4 0.4 -0.1
v -0.4 0.4 -0.2
v -0.4 0.5 0.4
v -0.4 0.5 0.3
v -0.4 0.5 0.2
v -0.4 0.5 0.1
v -0.4 0.5 0
v -0.4 0.5 -0.1
v -0.4 0.5 -0.2
v -0.4 0.5 -0.3
v -0.4 0.5 -0.4
v -0.4 0.6 0.3
v -0.4 0.6 0.2
v -0.4 0.6 -0.1
v -0.4 0.6 -0.2
v -0.4 0.7 -0.2
v -0.4 0.7 -0.3
v -0.4 0.8 0.4
v -0.4 0.8 -0.4
v 0.4 0 0.4
v 0.4 0 0.2
v 0.4 0 -0.2
v 0.4 0 -0.4
v 0.4 0.1 0.4
v 0.4 0.1 0.2
v 0.4 0.1 -0.2
v 0.4 0.1 -0.4
v 0.4 0.2 0.4
v 0.4 0.2 0.3
v 0.4 0.2 0.2
v 0.4 0.2 0.1
v 0.4 0.2 0
v 0.4 0.2 -0.1
v 0.4 0.2 -0.2
v 0.4 0.2 -0.3
v 0.4 0.2 -0.4
v 0.4 0.3 0.2
v 0.4 0.3 0.1
v 0.4 0.3 0
v 0.4 0.3 -0.1
v 0.4 0.3 -0.2
v 0.4 0.4 0.2
v 0.4 0.4 0.1
v 0.4 0.4 0
v 0.4 0.4 -0.1
v 0.4 0.5 0.2
v 0.4 0.5 0.1
v 0.4 0.5 0
v 0.4 0.5 -0.1
v 0.4 0.5 -0.2
v 0.4 0.5 -0.3
v 0.4 0.6 0.4
v 0.4 0.6 0.3
v 0.4 0.6 0.1
v 0.4 0.6 0
v 0.4 0.6 -0.1
v 0.4 0.6 -0.2
v 0.4 0.6 -0.3
v 0.4 0.6 -0.4
v 0.4 0.7 0.4
v 0.4 0.7 0.3
v 0.4 0.7 0.1
v 0.4 0.7 0
v 0.4 0.8 0.4
v 0.4 0.8 -0.4
v -0.4 0 0.4
v -0.4 0.1 0.4
v -0.4 0.2 0.4
v -0.4 0.5 0.4
v -0.4 0.8 0.4
v -0.3 0.2 0.4
v -0.3 0.5 0.4
v -0.2 0 0.4
v -0.2 0.1 0.4
v -0.2 0.2 0.4
v -0.2 0.3 0.4
v -0.2 0.4 0.4
v -0.2 0.5 0.4
v -0.2 0.6 0.4
v -0.1 0.2 0.4
v -0.1 0.3 0.4
v -0.1 0.4 0.4
v -0.1 0.5 0.4
v -0.1 0.6 0.4
v 0 0.2 0.4
v 0 0.3 0.4
v 0 0.4 0.4
v 0 0.5 0.4
v 0 0.6 0.4
v 0.1 0.2 0.4
v 0.1 0.3 0.4
v 0.1 0.4 0.4
v 0.1 0.5 0.4
v 0.1 0.6 0.4
v 0.2 0 0.4
v 0.2 0.1 0.4
v 0.2 0.2 0.4
v 0.2 0.3 0.4
v 0.2 0.5 0.4
v 0.2 0.6 0.4
v 0.3 0.2 0.4
v 0.3 0.6 0.4
v 0.3 0.7 0.4
v 0.4 0 0.4
v 0.4 0.1 0.4
v 0.4 0.2 0.4
v 0.4 0.6 0.4
v 0.4 0.7 0.4
v 0.4 0.8 0.4
v -0.4 0 -0.4
v -0.4 0.1 -0.4
v -0.4 0.2 -0.4
v -0.4 0.5 -0.4
v -0.4 0.8 -0.4
v -0.3 0.2 -0.4
v -0.3 0.5 -0.4
v -0.2 0 -0.4
v -0.2 0.1 -0.4
v -0.2 0.2 -0.4
v -0.2 0.3 -0.4
v -0.2 0.5 -0.4
v -0.1 0.2 -0.4
v -0.1 0.3 -0.4
v -0.1 0.4 -0.4
v -0.1 0.5 -0.4
v -0.1 0.6 -0.4
v 0 0.2 -0.4
v 0 0.3 -0.4
v 0 0.4 -0.4
v 0 0.5 -0.4
v 0.1 0.2 -0.4
v 0.1 0.3 -0.4
v 0.1 0.4 -0.4
v 0.1 0.5 -0.4
v 0.1 0.6 -0.4
v 0.2 0 -0.4
v 0.2 0.1 -0.4
v 0.2 0.2 -0.4
v 0.2 0.3 -0.4
v 0.2 0.4 -0.4
v 0.2 0.5 -0.4
v 0.2 0.6 -0.4
v 0.2 0.7 -0.4
v 0.3 0.2 -0.4
v 0.3 0.6 -0.4
v 0.3 0.7 -0.4
v 0.4 0 -0.4
v 0.4 0.1 -0.4
v 0.4 0.2 -0.4
v 0.4 0.6 -0.4
v 0.4 0.8 -0.4
v -0.4 0 0.4
v -0.2 0 0.4
v 0.2 0 0.4
v 0.4 0 0.4
v -0.4 0 0.2
v -0.2 0 0.2
v -0.1 0 0.2
v 0.1 0 0.2
v 0.2 0 0.2
v 0.4 0 0.2
v -0.2 0 0.1
v -0.1 0 0.1
v 0 0 0.1
v 0.1 0 0.1
v 0.2 0 0.1
v -0.2 0 0
v -0.1 0 0
v 0 0 0
v 0.1 0 0
v -0.2 0 -0.1
v -0.1 0 -0.1
v 0 0 -0.1
v 0.1 0 -0.1
v 0.2 0 -0.1
v -0.4 0 -0.2
v -0.2 0 -0.2
v -0.1 0 -0.2
v 0 0 -0.2
v 0.1 0 -0.2
v 0.2 0 -0.2
v 0.4 0 -0.2
v -0.4 0 -0.4
v -0.2 0 -0.4
v 0.2 0 -0.4
v 0.4 0 -0.4
v -0.4 0.8 0.4
v 0.4 0.8 0.4
v -0.2 0.8 0.3
v -0.1 0.8 0.3
v 0 0.8 0.3
v 0.1 0.8 0.3
v -0.2 0.8 0.2
v -0.1 0.8 0.2
v 0 0.8 0.2
v 0.1 0.8 0.2
v 0.2 0.8 0.2
v -0.3 0.8 0.1
v -0.2 0.8 0.1
v -0.1 0.8 0.1
v 0.1 0.8 0.1
v 0.2 0.8 0.1
v 0.3 0.8 0.1
v -0.3 0.8 0
v -0.2 0.8 0
v -0.1 0.8 0
v 0 0.8 0
v 0.1 0.8 0
v 0.2 0.8 0
v 0.3 0.8 0
v -0.2 0.8 -0.1
v -0.1 0.8 -0.1
v 0.1 0.8 -0.1
v 0.2 0.8 -0.1
v -0.3 0.8 -0.2
v -0.2 0.8 -0.2
v -0.1 0.8 -0.2
v 0 0.8 -0.2
v 0.1 0.8 -0.2
v 0.2 0.8 -0.2
v -0.3 0.8 -0.3
v -0.2 0.8 -0.3
v 0.1 0.8 -0.3
v 0.2 0.8 -0.3
v -0.4 0.8 -0.4
v 0.4 0.8 -0.4

# faces
f 5/4/1 2/4/1 1/4/1
f 6/3/1 3/3/1 2/3/1
f 6/4/1 2/4/1 5/4/1
f 7/4/1 4/4/1 3/4/1
f 7/3/1 3/3/1 6/3/1
f 8/4/1 4/4/1 7/4/1
f 9/3/1 6/3/1 5/3/1
f 10/3/1 6/3/1 9/3/1
f 11/2/1 7/2/1 6/2/1
f 11/3/1 6/3/1 10/3/1
f 12/2/1 7/2/1 11/2/1
f 13/2/1 7/2/1 12/2/1
f 14/2/1 7/2/1 13/2/1
f 15/3/1 8/3/1 7/3/1
f 15/2/1 7/2/1 14/2/1
f 16/3/1 8/3/1 15/3/1
f 17/3/1 8/3/1 16/3/1
f 18/3/1 11/3/1 10/3/1
f 18/3/1 12/3/1 11/3/1
f 19/4/1 13/4/1 12/4/1
f 19/3/1 12/3/1 18/3/1
f 20/6/1 14/6/1 13/6/1
f 20/4/1 13/4/1 19/4/1
f 21/5/1 15/5/1 14/5/1
f 21/6/1 14/6/1 20/6/1
f 22/3/1 16/3/1 15/3/1
f 22/5/1 15/5/1 21/5/1
f 23/6/1 19/6/1 18/6/1
f 23/3/1 20/3/1 19/3/1
f 24/4/1 21/4/1 20/4/1
f 24/3/1 20/3/1 23/3/1
f 25/6/1 22/6/1 21/6/1
f 25/4/1 21/4/1 24/4/1
f 26/3/1 16/3/1 22/3/1
f 26/6/1 22/6/1 25/6/1
f 27/2/1 10/2/1 9/2/1
f 28/3/1 18/3/1 10/3/1
f 28/2/1 10/2/1 27/2/1
f 29/6/1 23/6/1 18/6/1
f 29/3/1 18/3/1 28/3/1
f 30/5/1 24/5/1 23/5/1
f 30/6/1 23/6/1 29/6/1
f 31/3/1 25/3/1 24/3/1
f 31/5/1 24/5/1 30/5/1
f 32/4/1 26/4/1 25/4/1
f 32/3/1 25/3/1 31/3/1
f 33/3/1 16/3/1 26/3/1
f 33/4/1 26/4/1 32/4/1
f 34/2/1 17/2/1 16/2/1
f 34/3/1 16/3/1 33/3/1
f 35/2/1 17/2/1 34/2/1
f 36/3/1 29/3/1 28/3/1
f 36/1/1 28/1/1 27/1/1
f 37/1/1 32/1/1 31/1/1
f 37/3/1 29/3/1 36/3/1
f 37/1/1 30/1/1 29/1/1
f 37/1/1 31/1/1 30/1/1
f 38/3/1 34/3/1 33/3/1
f 38/1/1 32/1/1 37/1/1
f 38/3/1 33/3/1 32/3/1
f 39/3/1 34/3/1 38/3/1
f 40/1/1 37/1/1 36/1/1
f 40/3/1 34/3/1 39/3/1
f 40/1/1 39/1/1 38/1/1
f 40/1/1 38/1/1 37/1/1
f 41/1/1 35/1/1 34/1/1
f 41/3/1 34/3/1 40/3/1
f 42/1/1 36/1/1 27/1/1
f 42/1/1 40/1/1 36/1/1
f 42/1/1 41/1/1 40/1/1
f 43/1/1 35/1/1 41/1/1
f 43/1/1 41/1/1 42/1/1
f 44/4/2 45/4/2 48/4/2
f 45/3/2 46/3/2 49/3/2
f 48/4/2 45/4/2 49/4/2
f 46/4/2 47/4/2 50/4/2
f 49/3/2 46/3/2 50/3/2
f 50/4/2 47/4/2 51/4/2
f 48/3/2 49/3/2 52/3/2
f 52/3/2 49/3/2 53/3/2
f 49/2/2 50/2/2 54/2/2
f 53/3/2 49/3/2 54/3/2
f 54/2/2 50/2/2 55/2/2
f 55/2/2 50/2/2 56/2/2
f 56/2/2 50/2/2 57/2/2
f 50/3/2 51/3/2 58/3/2
f 57/2/2 50/2/2 58/2/2
f 58/3/2 51/3/2 59/3/2
f 59/3/2 51/3/2 60/3/2
f 53/3/2 54/3/2 61/3/2
f 54/5/2 55/5/2 61/5/2
f 55/6/2 56/6/2 62/6/2
f 61/5/2 55/5/2 62/5/2
f 56/4/2 57/4/2 63/4/2
f 62/6/2 56/6/2 63/6/2
f 57/3/2 58/3/2 64/3/2
f 63/4/2 57/4/2 64/4/2
f 58/3/2 59/3/2 64/3/2
f 64/3/2 59/3/2 65/3/2
f 61/6/2 62/6/2 66/6/2
f 53/3/2 61/3/2 66/3/2
f 62/4/2 63/4/2 67/4/2
f 66/6/2 62/6/2 67/6/2
f 63/3/2 64/3/2 68/3/2
f 67/4/2 63/4/2 68/4/2
f 64/6/2 65/6/2 69/6/2
f 68/3/2 64/3/2 69/3/2
f 53/3/2 66/3/2 70/3/2
f 66/4/2 67/4/2 70/4/2
f 67/3/2 68/3/2 71/3/2
f 70/4/2 67/4/2 71/4/2
f 68/5/2 69/5/2 72/5/2
f 71/3/2 68/3/2 72/3/2
f 69/6/2 65/6/2 73/6/2
f 72/5/2 69/5/2 73/5/2
f 65/3/2 59/3/2 74/3/2
f 73/6/2 65/6/2 74/6/2
f 59/2/2 60/2/2 75/2/2
f 74/3/2 59/3/2 75/3/2
f 52/2/2 53/2/2 76/2/2
f 53/3/2 70/3/2 77/3/2
f 76/2/2 53/2/2 77/2/2
f 70/3/2 71/3/2 77/3/2
f 71/6/2 72/6/2 78/6/2
f 77/3/2 71/3/2 78/3/2
f 72/1/2 73/1/2 79/1/2
f 78/6/2 72/6/2 79/6/2
f 73/5/2 74/5/2 80/5/2
f 79/1/2 73/1/2 80/1/2
f 74/1/2 75/1/2 81/1/2
f 80/5/2 74/5/2 81/5/2
f 75/2/2 60/2/2 82/2/2
f 81/1/2 75/1/2 82/1/2
f 82/2/2 60/2/2 83/2/2
f 76/3/2 77/3/2 84/3/2
f 77/1/2 78/1/2 85/1/2
f 84/3/2 77/3/2 85/3/2
f 78/4/2 79/4/2 86/4/2
f 85/1/2 78/1/2 86/1/2
f 80/1/2 81/1/2 87/1/2
f 86/4/2 79/4/2 87/4/2
f 79/1/2 80/1/2 87/1/2
f 82/1/2 83/1/2 87/1/2
f 81/1/2 82/1/2 87/1/2
f 85/1/2 86/1/2 88/1/2
f 84/1/2 85/1/2 88/1/2
f 86/1/2 87/1/2 88/1/2
f 87/1/2 83/1/2 89/1/2
f 88/1/2 87/1/2 89/1/2
f 95/3/3 92/3/3 91/3/3
f 95/2/3 93/2/3 92/2/3
f 96/1/3 94/1/3 93/1/3
f 96/2/3 93/2/3 95/2/3
f 97/4/3 91/4/3 90/4/3
f 98/3/3 95/3/3 91/3/3
f 98/4/3 91/4/3 97/4/3
f 98/3/3 96/3/3 95/3/3
f 99/3/3 96/3/3 98/3/3
f 100/3/3 96/3/3 99/3/3
f 101/3/3 96/3/3 100/3/3
f 102/1/3 94/1/3 96/1/3
f 102/3/3 96/3/3 101/3/3
f 103/1/3 94/1/3 102/1/3
f 104/2/3 99/2/3 98/2/3
f 104/5/3 100/5/3 99/5/3
f 105/6/3 101/6/3 100/6/3
f 105/5/3 100/5/3 104/5/3
f 106/1/3 102/1/3 101/1/3
f 106/6/3 101/6/3 105/6/3
f 107/3/3 103/3/3 102/3/3
f 107/1/3 102/1/3 106/1/3
f 108/1/3 94/1/3 103/1/3
f 108/3/3 103/3/3 107/3/3
f 109/2/3 104/2/3 98/2/3
f 109/6/3 105/6/3 104/6/3
f 110/4/3 106/4/3 105/4/3
f 110/6/3 105/6/3 109/6/3
f 111/1/3 107/1/3 106/1/3
f 111/4/3 106/4/3 110/4/3
f 111/1/3 108/1/3 107/1/3
f 112/1/3 108/1/3 111/1/3
f 113/1/3 94/1/3 108/1/3
f 113/1/3 108/1/3 112/1/3
f 114/4/3 110/4/3 109/4/3
f 114/2/3 109/2/3 98/2/3
f 115/3/3 111/3/3 110/3/3
f 115/4/3 110/4/3 114/4/3
f 116/5/3 112/5/3 111/5/3
f 116/3/3 111/3/3 115/3/3
f 117/6/3 113/6/3 112/6/3
f 117/5/3 112/5/3 116/5/3
f 118/1/3 94/1/3 113/1/3
f 118/6/3 113/6/3 117/6/3
f 119/3/3 98/3/3 97/3/3
f 120/2/3 114/2/3 98/2/3
f 120/3/3 98/3/3 119/3/3
f 121/3/3 115/3/3 114/3/3
f 121/2/3 114/2/3 120/2/3
f 122/6/3 117/6/3 116/6/3
f 122/3/3 115/3/3 121/3/3
f 122/6/3 116/6/3 115/6/3
f 123/1/3 118/1/3 117/1/3
f 123/6/3 117/6/3 122/6/3
f 124/1/3 94/1/3 118/1/3
f 124/1/3 118/1/3 123/1/3
f 125/3/3 123/3/3 122/3/3
f 125/3/3 121/3/3 120/3/3
f 125/3/3 124/3/3 123/3/3
f 125/3/3 122/3/3 121/3/3
f 126/1/3 94/1/3 124/1/3
f 126/3/3 124/3/3 125/3/3
f 127/1/3 94/1/3 126/1/3
f 128/4/3 120/4/3 119/4/3
f 129/3/3 125/3/3 120/3/3
f 129/4/3 120/4/3 128/4/3
f 130/2/3 126/2/3 125/2/3
f 130/3/3 125/3/3 129/3/3
f 131/3/3 127/3/3 126/3/3
f 131/2/3 126/2/3 130/2/3
f 132/1/3 94/1/3 127/1/3
f 132/3/3 127/3/3 131/3/3
f 133/1/3 94/1/3 132/1/3
f 135/3/4 136/3/4 139/3/4
f 136/2/4 137/2/4 139/2/4
f 137/1/4 138/1/4 140/1/4
f 139/2/4 137/2/4 140/2/4
f 134/4/4 135/4/4 141/4/4
f 135/3/4 139/3/4 142/3/4
f 141/4/4 135/4/4 142/4/4
f 139/3/4 140/3/4 142/3/4
f 142/3/4 140/3/4 143/3/4
f 143/3/4 140/3/4 144/3/4
f 140/1/4 138/1/4 145/1/4
f 144/3/4 140/3/4 145/3/4
f 143/3/4 144/3/4 146/3/4
f 142/2/4 143/2/4 146/2/4
f 144/6/4 145/6/4 147/6/4
f 146/3/4 144/3/4 147/3/4
f 147/6/4 145/6/4 148/6/4
f 145/1/4 138/1/4 149/1/4
f 148/6/4 145/6/4 149/6/4
f 149/1/4 138/1/4 150/1/4
f 142/2/4 146/2/4 151/2/4
f 146/4/4 147/4/4 151/4/4
f 147/3/4 148/3/4 152/3/4
f 151/4/4 147/4/4 152/4/4
f 148/5/4 149/5/4 153/5/4
f 152/3/4 148/3/4 153/3/4
f 149/6/4 150/6/4 154/6/4
f 153/5/4 149/5/4 154/5/4
f 142/2/4 151/2/4 155/2/4
f 151/6/4 152/6/4 155/6/4
f 152/4/4 153/4/4 156/4/4
f 155/6/4 152/6/4 156/6/4
f 153/3/4 154/3/4 157/3/4
f 156/4/4 153/4/4 157/4/4
f 154/6/4 150/6/4 158/6/4
f 157/3/4 154/3/4 158/3/4
f 150/1/4 138/1/4 159/1/4
f 158/6/4 150/6/4 159/6/4
f 141/3/4 142/3/4 160/3/4
f 142/2/4 155/2/4 161/2/4
f 160/3/4 142/3/4 161/3/4
f 155/5/4 156/5/4 162/5/4
f 161/2/4 155/2/4 162/2/4
f 156/6/4 157/6/4 163/6/4
f 162/5/4 156/5/4 163/5/4
f 157/4/4 158/4/4 164/4/4
f 163/6/4 157/6/4 164/6/4
f 158/3/4 159/3/4 165/3/4
f 164/4/4 158/4/4 165/4/4
f 159/1/4 138/1/4 166/1/4
f 165/3/4 159/3/4 166/3/4
f 166/1/4 138/1/4 167/1/4
f 161/3/4 162/3/4 168/3/4
f 164/3/4 165/3/4 168/3/4
f 166/3/4 167/3/4 168/3/4
f 165/3/4 166/3/4 168/3/4
f 163/3/4 164/3/4 168/3/4
f 162/3/4 163/3/4 168/3/4
f 168/3/4 167/3/4 169/3/4
f 167/1/4 138/1/4 170/1/4
f 169/3/4 167/3/4 170/3/4
f 160/4/4 161/4/4 171/4/4
f 161/3/4 168/3/4 172/3/4
f 171/4/4 161/4/4 172/4/4
f 168/2/4 169/2/4 173/2/4
f 172/3/4 168/3/4 173/3/4
f 169/1/4 170/1/4 174/1/4
f 173/2/4 169/2/4 174/2/4
f 170/1/4 138/1/4 175/1/4
f 174/1/4 170/1/4 175/1/4
f 180/4/5 177/4/5 176/4/5
f 181/3/5 178/3/5 177/3/5
f 181/4/5 177/4/5 180/4/5
f 182/3/5 178/3/5 181/3/5
f 183/3/5 178/3/5 182/3/5
f 184/4/5 179/4/5 178/4/5
f 184/3/5 178/3/5 183/3/5
f 185/4/5 179/4/5 184/4/5
f 186/3/5 181/3/5 180/3/5
f 186/3/5 182/3/5 181/3/5
f 187/6/5 183/6/5 182/6/5
f 187/3/5 182/3/5 186/3/5
f 188/6/5 183/6/5 187/6/5
f 189/5/5 184/5/5 183/5/5
f 189/6/5 183/6/5 188/6/5
f 190/3/5 185/3/5 184/3/5
f 190/5/5 184/5/5 189/5/5
f 191/3/5 186/3/5 180/3/5
f 191/4/5 187/4/5 186/4/5
f 192/3/5 188/3/5 187/3/5
f 192/4/5 187/4/5 191/4/5
f 193/5/5 189/5/5 188/5/5
f 193/3/5 188/3/5 192/3/5
f 194/6/5 190/6/5 189/6/5
f 194/5/5 189/5/5 193/5/5
f 195/6/5 192/6/5 191/6/5
f 195/3/5 191/3/5 180/3/5
f 196/4/5 193/4/5 192/4/5
f 196/6/5 192/6/5 195/6/5
f 197/3/5 194/3/5 193/3/5
f 197/4/5 193/4/5 196/4/5
f 198/6/5 190/6/5 194/6/5
f 198/3/5 194/3/5 197/3/5
f 199/3/5 185/3/5 190/3/5
f 199/6/5 190/6/5 198/6/5
f 200/3/5 195/3/5 180/3/5
f 201/5/5 196/5/5 195/5/5
f 201/3/5 195/3/5 200/3/5
f 202/6/5 197/6/5 196/6/5
f 202/5/5 196/5/5 201/5/5
f 203/4/5 198/4/5 197/4/5
f 203/6/5 197/6/5 202/6/5
f 204/3/5 199/3/5 198/3/5
f 204/4/5 198/4/5 203/4/5
f 205/3/5 185/3/5 199/3/5
f 205/3/5 199/3/5 204/3/5
f 206/3/5 185/3/5 205/3/5
f 207/4/5 201/4/5 200/4/5
f 208/3/5 202/3/5 201/3/5
f 208/4/5 201/4/5 207/4/5
f 208/3/5 204/3/5 203/3/5
f 208/3/5 203/3/5 202/3/5
f 208/3/5 205/3/5 204/3/5
f 209/4/5 206/4/5 205/4/5
f 209/3/5 205/3/5 208/3/5
f 210/4/5 206/4/5 209/4/5
f 211/1/6 212/1/6 213/1/6
f 213/1/6 212/1/6 214/1/6
f 214/1/6 212/1/6 215/1/6
f 215/1/6 212/1/6 216/1/6
f 211/1/6 213/1/6 217/1/6
f 213/7/6 214/7/6 217/7/6
f 214/1/6 215/1/6 218/1/6
f 217/7/6 214/7/6 218/7/6
f 215/7/6 216/7/6 219/7/6
f 218/1/6 215/1/6 219/1/6
f 216/1/6 212/1/6 220/1/6
f 219/7/6 216/7/6 220/7/6
f 220/1/6 212/1/6 221/1/6
f 218/1/6 219/1/6 222/1/6
f 217/1/6 218/1/6 222/1/6
f 211/1/6 217/1/6 222/1/6
f 219/1/6 220/1/6 222/1/6
f 222/1/6 220/1/6 223/1/6
f 223/1/6 220/1/6 224/1/6
f 220/7/6 221/7/6 225/7/6
f 224/1/6 220/1/6 225/1/6
f 221/1/6 212/1/6 226/1/6
f 225/7/6 221/7/6 226/7/6
f 226/1/6 212/1/6 227/1/6
f 211/1/6 222/1/6 228/1/6
f 222/7/6 223/7/6 228/7/6
f 223/1/6 224/1/6 229/1/6
f 228/7/6 223/7/6 229/7/6
f 224/7/6 225/7/6 230/7/6
f 229/1/6 224/1/6 230/1/6
f 230/7/6 225/7/6 231/7/6
f 225/1/6 226/1/6 232/1/6
f 231/7/6 225/7/6 232/7/6
f 226/7/6 227/7/6 233/7/6
f 232/1/6 226/1/6 233/1/6
f 227/1/6 212/1/6 234/1/6
f 233/7/6 227/7/6 234/7/6
f 228/1/6 229/1/6 235/1/6
f 230/7/6 231/7/6 235/7/6
f 229/7/6 230/7/6 235/7/6
f 235/7/6 231/7/6 236/7/6
f 232/7/6 233/7/6 237/7/6
f 231/1/6 232/1/6 237/1/6
f 233/1/6 234/1/6 238/1/6
f 237/7/6 233/7/6 238/7/6
f 211/1/6 228/1/6 239/1/6
f 235/1/6 236/1/6 239/1/6
f 228/1/6 235/1/6 239/1/6
f 239/1/6 236/1/6 240/1/6
f 236/7/6 231/7/6 241/7/6
f 240/1/6 236/1/6 241/1/6
f 237/1/6 238/1/6 242/1/6
f 241/7/6 231/7/6 242/7/6
f 231/1/6 237/1/6 242/1/6
f 242/1/6 238/1/6 243/1/6
f 238/1/6 234/1/6 244/1/6
f 243/1/6 238/1/6 244/1/6
f 239/7/6 240/7/6 245/7/6
f 211/1/6 239/1/6 245/1/6
f 242/1/6 243/1/6 246/1/6
f 245/7/6 240/7/6 246/7/6
f 240/1/6 241/1/6 246/1/6
f 241/1/6 242/1/6 246/1/6
f 243/7/6 244/7/6 247/7/6
f 246/1/6 243/1/6 247/1/6
f 244/1/6 234/1/6 248/1/6
f 247/7/6 244/7/6 248/7/6
f 211/1/6 245/1/6 249/1/6
f 246/1/6 247/1/6 249/1/6
f 247/1/6 248/1/6 249/1/6
f 245/1/6 246/1/6 249/1/6
f 234/1/6 212/1/6 250/1/6
f 249/1/6 248/1/6 250/1/6
f 248/1/6 234/1/6 250/1/6
